<svg width="44" height="25" viewBox="0 0 44 25" fill="none" xmlns="http://www.w3.org/2000/svg">
<path fill-rule="evenodd" clip-rule="evenodd" d="M8.94906 4.9569C7.6117 4.9569 6.52755 3.84726 6.52755 2.47845C6.52755 1.10964 7.6117 0 8.94906 0C10.2864 0 11.3706 1.10964 11.3706 2.47845C11.3706 3.84726 10.2864 4.9569 8.94906 4.9569ZM8.94906 11.6379C7.6117 11.6379 6.52755 10.5283 6.52755 9.15948C6.52755 7.79067 7.6117 6.68103 8.94906 6.68103C10.2864 6.68103 11.3706 7.79067 11.3706 9.15948C11.3706 10.5283 10.2864 11.6379 8.94906 11.6379ZM15.4766 11.6379C14.1393 11.6379 13.0551 10.5283 13.0551 9.15948C13.0551 7.79067 14.1393 6.68103 15.4766 6.68103C16.814 6.68103 17.8981 7.79067 17.8981 9.15948C17.8981 10.5283 16.814 11.6379 15.4766 11.6379ZM15.4766 18.319C14.1393 18.319 13.0551 17.2093 13.0551 15.8405C13.0551 14.4717 14.1393 13.3621 15.4766 13.3621C16.814 13.3621 17.8981 14.4717 17.8981 15.8405C17.8981 17.2093 16.814 18.319 15.4766 18.319ZM22.0042 18.319C20.6668 18.319 19.5827 17.2093 19.5827 15.8405C19.5827 14.4717 20.6668 13.3621 22.0042 13.3621C23.3415 13.3621 24.4257 14.4717 24.4257 15.8405C24.4257 17.2093 23.3415 18.319 22.0042 18.319ZM28.5317 18.319C27.1944 18.319 26.1102 17.2093 26.1102 15.8405C26.1102 14.4717 27.1944 13.3621 28.5317 13.3621C29.8691 13.3621 30.9532 14.4717 30.9532 15.8405C30.9532 17.2093 29.8691 18.319 28.5317 18.319ZM28.5317 11.6379C27.1944 11.6379 26.1102 10.5283 26.1102 9.15948C26.1102 7.79067 27.1944 6.68103 28.5317 6.68103C29.8691 6.68103 30.9532 7.79067 30.9532 9.15948C30.9532 10.5283 29.8691 11.6379 28.5317 11.6379ZM35.0593 11.6379C33.7219 11.6379 32.6378 10.5283 32.6378 9.15948C32.6378 7.79067 33.7219 6.68103 35.0593 6.68103C36.3966 6.68103 37.4808 7.79067 37.4808 9.15948C37.4808 10.5283 36.3966 11.6379 35.0593 11.6379ZM35.0593 4.9569C33.7219 4.9569 32.6378 3.84726 32.6378 2.47845C32.6378 1.10964 33.7219 0 35.0593 0C36.3966 0 37.4808 1.10964 37.4808 2.47845C37.4808 3.84726 36.3966 4.9569 35.0593 4.9569ZM35.0593 18.319C33.7219 18.319 32.6378 17.2093 32.6378 15.8405C32.6378 14.4717 33.7219 13.3621 35.0593 13.3621C36.3966 13.3621 37.4808 14.4717 37.4808 15.8405C37.4808 17.2093 36.3966 18.319 35.0593 18.319ZM35.0593 25C33.7219 25 32.6378 23.8904 32.6378 22.5216C32.6378 21.1527 33.7219 20.0431 35.0593 20.0431C36.3966 20.0431 37.4808 21.1527 37.4808 22.5216C37.4808 23.8904 36.3966 25 35.0593 25ZM8.94906 18.319C7.6117 18.319 6.52755 17.2093 6.52755 15.8405C6.52755 14.4717 7.6117 13.3621 8.94906 13.3621C10.2864 13.3621 11.3706 14.4717 11.3706 15.8405C11.3706 17.2093 10.2864 18.319 8.94906 18.319ZM2.42151 18.319C1.08415 18.319 0 17.2093 0 15.8405C0 14.4717 1.08415 13.3621 2.42151 13.3621C3.75887 13.3621 4.84302 14.4717 4.84302 15.8405C4.84302 17.2093 3.75887 18.319 2.42151 18.319ZM41.5868 18.319C40.2495 18.319 39.1653 17.2093 39.1653 15.8405C39.1653 14.4717 40.2495 13.3621 41.5868 13.3621C42.9242 13.3621 44.0083 14.4717 44.0083 15.8405C44.0083 17.2093 42.9242 18.319 41.5868 18.319ZM8.94906 25C7.6117 25 6.52755 23.8904 6.52755 22.5216C6.52755 21.1527 7.6117 20.0431 8.94906 20.0431C10.2864 20.0431 11.3706 21.1527 11.3706 22.5216C11.3706 23.8904 10.2864 25 8.94906 25Z" fill="#0038FF"/>
</svg>