<svg width="143" height="25" viewBox="0 0 143 25" fill="none" xmlns="http://www.w3.org/2000/svg">
  <!-- 2a Icon -->
  <path fill-rule="evenodd" clip-rule="evenodd" d="M8.94906 4.9569C7.6117 4.9569 6.52755 3.84726 6.52755 2.47845C6.52755 1.10964 7.6117 0 8.94906 0C10.2864 0 11.3706 1.10964 11.3706 2.47845C11.3706 3.84726 10.2864 4.9569 8.94906 4.9569ZM8.94906 11.6379C7.6117 11.6379 6.52755 10.5283 6.52755 9.15948C6.52755 7.79067 7.6117 6.68103 8.94906 6.68103C10.2864 6.68103 11.3706 7.79067 11.3706 9.15948C11.3706 10.5283 10.2864 11.6379 8.94906 11.6379ZM15.4766 11.6379C14.1393 11.6379 13.0551 10.5283 13.0551 9.15948C13.0551 7.79067 14.1393 6.68103 15.4766 6.68103C16.814 6.68103 17.8981 7.79067 17.8981 9.15948C17.8981 10.5283 16.814 11.6379 15.4766 11.6379ZM15.4766 18.319C14.1393 18.319 13.0551 17.2093 13.0551 15.8405C13.0551 14.4717 14.1393 13.3621 15.4766 13.3621C16.814 13.3621 17.8981 14.4717 17.8981 15.8405C17.8981 17.2093 16.814 18.319 15.4766 18.319ZM22.0042 18.319C20.6668 18.319 19.5827 17.2093 19.5827 15.8405C19.5827 14.4717 20.6668 13.3621 22.0042 13.3621C23.3415 13.3621 24.4257 14.4717 24.4257 15.8405C24.4257 17.2093 23.3415 18.319 22.0042 18.319ZM28.5317 18.319C27.1944 18.319 26.1102 17.2093 26.1102 15.8405C26.1102 14.4717 27.1944 13.3621 28.5317 13.3621C29.8691 13.3621 30.9532 14.4717 30.9532 15.8405C30.9532 17.2093 29.8691 18.319 28.5317 18.319ZM28.5317 11.6379C27.1944 11.6379 26.1102 10.5283 26.1102 9.15948C26.1102 7.79067 27.1944 6.68103 28.5317 6.68103C29.8691 6.68103 30.9532 7.79067 30.9532 9.15948C30.9532 10.5283 29.8691 11.6379 28.5317 11.6379ZM35.0593 11.6379C33.7219 11.6379 32.6378 10.5283 32.6378 9.15948C32.6378 7.79067 33.7219 6.68103 35.0593 6.68103C36.3966 6.68103 37.4808 7.79067 37.4808 9.15948C37.4808 10.5283 36.3966 11.6379 35.0593 11.6379ZM35.0593 4.9569C33.7219 4.9569 32.6378 3.84726 32.6378 2.47845C32.6378 1.10964 33.7219 0 35.0593 0C36.3966 0 37.4808 1.10964 37.4808 2.47845C37.4808 3.84726 36.3966 4.9569 35.0593 4.9569ZM35.0593 18.319C33.7219 18.319 32.6378 17.2093 32.6378 15.8405C32.6378 14.4717 33.7219 13.3621 35.0593 13.3621C36.3966 13.3621 37.4808 14.4717 37.4808 15.8405C37.4808 17.2093 36.3966 18.319 35.0593 18.319ZM35.0593 25C33.7219 25 32.6378 23.8904 32.6378 22.5216C32.6378 21.1527 33.7219 20.0431 35.0593 20.0431C36.3966 20.0431 37.4808 21.1527 37.4808 22.5216C37.4808 23.8904 36.3966 25 35.0593 25ZM8.94906 18.319C7.6117 18.319 6.52755 17.2093 6.52755 15.8405C6.52755 14.4717 7.6117 13.3621 8.94906 13.3621C10.2864 13.3621 11.3706 14.4717 11.3706 15.8405C11.3706 17.2093 10.2864 18.319 8.94906 18.319ZM2.42151 18.319C1.08415 18.319 0 17.2093 0 15.8405C0 14.4717 1.08415 13.3621 2.42151 13.3621C3.75887 13.3621 4.84302 14.4717 4.84302 15.8405C4.84302 17.2093 3.75887 18.319 2.42151 18.319ZM41.5868 18.319C40.2495 18.319 39.1653 17.2093 39.1653 15.8405C39.1653 14.4717 40.2495 13.3621 41.5868 13.3621C42.9242 13.3621 44.0083 14.4717 44.0083 15.8405C44.0083 17.2093 42.9242 18.319 41.5868 18.319ZM8.94906 25C7.6117 25 6.52755 23.8904 6.52755 22.5216C6.52755 21.1527 7.6117 20.0431 8.94906 20.0431C10.2864 20.0431 11.3706 21.1527 11.3706 22.5216C11.3706 23.8904 10.2864 25 8.94906 25Z" fill="#0038FF"/>
  <!-- BRIDGE Text -->
  <g transform="translate(53.26, 4.6)">
    <path d="M6.40523 15.3429H0V0.364285H5.69353C6.68432 0.364285 7.53556 0.485713 8.24725 0.728571C8.9729 0.971428 9.51015 1.3 9.85902 1.71429C10.5289 2.48571 10.8638 3.35714 10.8638 4.32857C10.8638 5.5 10.5009 6.37143 9.7753 6.94286C9.51016 7.14286 9.32874 7.27143 9.23106 7.32857C9.13338 7.37143 8.95894 7.45 8.70776 7.56429C9.61482 7.76429 10.3335 8.18572 10.8638 8.82857C11.408 9.45714 11.6801 10.2429 11.6801 11.1857C11.6801 12.2286 11.3312 13.15 10.6335 13.95C9.81018 14.8786 8.40075 15.3429 6.40523 15.3429ZM2.46999 6.57857H5.60981C7.39601 6.57857 8.28912 5.95714 8.28912 4.71429C8.28912 4 8.07282 3.48571 7.64022 3.17143C7.20762 2.85714 6.5378 2.7 5.63074 2.7H2.46999V6.57857ZM2.46999 13.0071H6.34243C7.24949 13.0071 7.94025 12.8643 8.41471 12.5786C8.90312 12.2786 9.14733 11.7214 9.14733 10.9071C9.14733 9.57857 8.1077 8.91429 6.02845 8.91429H2.46999V13.0071Z" fill="#0D1531"/>
    <path d="M28.5525 5.22857C28.5525 7.7 27.499 9.25714 25.3918 9.9L29.2224 15.3429H26.0826L22.5869 10.3071H19.3424V15.3429H16.8724V0.364285H22.3148C24.5475 0.364285 26.1454 0.75 27.1082 1.52143C28.0711 2.29286 28.5525 3.52857 28.5525 5.22857ZM22.4194 8.01429C23.8149 8.01429 24.7638 7.79286 25.2662 7.35C25.7686 6.90714 26.0198 6.2 26.0198 5.22857C26.0198 4.24286 25.7616 3.57143 25.2453 3.21429C24.7289 2.84286 23.8079 2.65714 22.4822 2.65714H19.3424V8.01429H22.4194Z" fill="#0D1531"/>
    <path d="M34.1946 0.364285H36.6646V15.3429H34.1946V0.364285Z" fill="#0D1531"/>
    <path d="M47.8323 0.364285C50.4558 0.364285 52.4723 1.02143 53.8817 2.33571C55.2911 3.63571 55.9959 5.45 55.9959 7.77857C55.9959 10.1071 55.3121 11.95 53.9445 13.3071C52.5769 14.6643 50.4837 15.3429 47.6649 15.3429H42.8086V0.364285H47.8323ZM53.5049 7.84286C53.5049 4.41429 51.5862 2.7 47.7486 2.7H45.2786V12.9643H48.0207C49.793 12.9643 51.1466 12.5357 52.0815 11.6786C53.0305 10.8071 53.5049 9.52857 53.5049 7.84286Z" fill="#0D1531"/>
    <path d="M71.4066 8.05714H73.8766V13.1786C72.4951 14.7357 70.5205 15.5143 67.9528 15.5143C65.7898 15.5143 63.9757 14.7857 62.5105 13.3286C61.0592 11.8714 60.3335 10.0286 60.3335 7.8C60.3335 5.57143 61.0731 3.71429 62.5523 2.22857C64.0455 0.742857 65.8457 0 67.9528 0C70.06 0 71.8113 0.628572 73.2068 1.88571L71.8881 3.81429C71.3159 3.31429 70.7368 2.97143 70.1507 2.78571C69.5786 2.58571 68.9087 2.48571 68.1412 2.48571C66.662 2.48571 65.42 2.97857 64.4153 3.96429C63.4106 4.93571 62.9082 6.22143 62.9082 7.82143C62.9082 9.40714 63.3966 10.6857 64.3734 11.6571C65.3503 12.6143 66.5294 13.0929 67.911 13.0929C69.3064 13.0929 70.4717 12.7857 71.4066 12.1714V8.05714Z" fill="#0D1531"/>
    <path d="M89.4885 0.364285V2.74286H81.6809V6.70714H88.6931V8.95714H81.6809V12.9643H89.7397V15.3429H79.2109V0.364285H89.4885Z" fill="#0D1531"/>
  </g>
</svg>
